# xmcd
#
# Track frame offsets:
#	150
#	20155
#	40022
#	57910
#	78504
#	101770
#	120487
#	139790
#	166967
#	186222
#
# Disc length: 2795 seconds
#
# Revision: 0
# Processed by: cddbd v1.5.2PL0 Copyright (c) Steve Scherf et al.
# Submitted via: audiograbber 1.83.01
#
DISCID=820ae90a
DTITLE=Will Diehl - i am free
DYEAR=1995
DGENRE=
TTITLE0=you are the warmth
TTITLE1=true love
TTITLE2=sunlight dancing
TTITLE3=i hear a spanish guitar
TTITLE4=watch the clock
TTITLE5=then it goes slow
TTITLE6=wish 'round the moon
TTITLE7=real love
TTITLE8=she carried a magic lantern
TTITLE9=i am free
EXTD=
EXTT0=
EXTT1=
EXTT2=
EXTT3=
EXTT4=
EXTT5=
EXTT6=
EXTT7=
EXTT8=
EXTT9=
PLAYORDER=
